# xmcd
#
# Track frame offsets:
#  195
#  13982
#  27092
#  42325
#  54210
#  71817
#  96520
#  118290
#  131920
#  154340
#  171842
#  193495
#
# Disc length: 2754 seconds
#
# Revision: 1
# Processed by: cddbd v1.5.1PL2 Copyright (c) Steve Scherf et al.
# Submitted via: Collectorz.com_Music_Collector 6.11
#
DISCID=b70ac00c
DTITLE=Various Artist - American Folk Blues Festival '63
DYEAR=1991
DGENRE=
TTITLE0=Peter Chatman - Wish Me Well
TTITLE1=Big Joe Williams - I Have No Friends
TTITLE2=Willie Dixon - Sittin' And Cryin' The Blues
TTITLE3=Willie Dixon - Crazy For My Baby
TTITLE4=Victoria Spivey - Grant Spivey
TTITLE5=Matt "Guitar" Murphy - Matt's Guitar Boogie
TTITLE6=Rice Miller Williamson - I Don't Know
TTITLE7=Rice Miller Williamson - Sonny Boy's Harmonica Blues
TTITLE8=Lonnie Johnson - It's Too Late To Cry
TTITLE9=Otis Spann - Had My Fun
TTITLE10=E. Boyd-Moragnfield - Five Long Years
TTITLE11=Peter Chatman - Bye Bye Blues
EXTD=
EXTT0=
EXTT1=
EXTT2=
EXTT3=
EXTT4=
EXTT5=
EXTT6=
EXTT7=
EXTT8=
EXTT9=
EXTT10=
EXTT11=
PLAYORDER=
